<mxfile host="app.diagrams.net" modified="2021-04-07T12:53:30.407Z" agent="5.0 (Windows NT 10.0; Win64; x64) AppleWebKit/537.36 (KHTML, like Gecko) Chrome/89.0.4389.114 Safari/537.36" etag="imxFC44GsvB6lX9HA2Q1" version="14.5.7" type="github">
  <diagram id="R2lEEEUBdFMjLlhIrx00" name="Page-1">
    <mxGraphModel dx="1422" dy="762" grid="1" gridSize="10" guides="1" tooltips="1" connect="1" arrows="1" fold="1" page="1" pageScale="1" pageWidth="2339" pageHeight="3300" math="0" shadow="0" extFonts="Permanent Marker^https://fonts.googleapis.com/css?family=Permanent+Marker">
      <root>
        <mxCell id="0" />
        <mxCell id="1" parent="0" />
        <mxCell id="WZYwIPlytzG-EjPIgdLX-2" value="大棚" style="rounded=0;whiteSpace=wrap;html=1;" parent="1" vertex="1">
          <mxGeometry x="575" y="530" width="80" height="50" as="geometry" />
        </mxCell>
        <mxCell id="WZYwIPlytzG-EjPIgdLX-10" value="二氧化碳" style="ellipse;whiteSpace=wrap;html=1;aspect=fixed;" parent="1" vertex="1">
          <mxGeometry x="590" y="300" width="60" height="60" as="geometry" />
        </mxCell>
        <mxCell id="WZYwIPlytzG-EjPIgdLX-16" value="内光强度" style="ellipse;whiteSpace=wrap;html=1;aspect=fixed;" parent="1" vertex="1">
          <mxGeometry x="500" y="312.5" width="60" height="60" as="geometry" />
        </mxCell>
        <mxCell id="WZYwIPlytzG-EjPIgdLX-17" value="外光强度" style="ellipse;whiteSpace=wrap;html=1;aspect=fixed;" parent="1" vertex="1">
          <mxGeometry x="400" y="372.5" width="60" height="60" as="geometry" />
        </mxCell>
        <mxCell id="WZYwIPlytzG-EjPIgdLX-23" value="机械控制组" style="rounded=0;whiteSpace=wrap;html=1;" parent="1" vertex="1">
          <mxGeometry x="1130" y="897.5" width="80" height="42.5" as="geometry" />
        </mxCell>
        <mxCell id="WZYwIPlytzG-EjPIgdLX-29" value="卷膜器" style="ellipse;whiteSpace=wrap;html=1;aspect=fixed;" parent="1" vertex="1">
          <mxGeometry x="965" y="800" width="70" height="70" as="geometry" />
        </mxCell>
        <mxCell id="WZYwIPlytzG-EjPIgdLX-30" value="农药喷灌" style="ellipse;whiteSpace=wrap;html=1;aspect=fixed;" parent="1" vertex="1">
          <mxGeometry x="1045" y="760" width="70" height="70" as="geometry" />
        </mxCell>
        <mxCell id="WZYwIPlytzG-EjPIgdLX-31" value="通风" style="ellipse;whiteSpace=wrap;html=1;aspect=fixed;" parent="1" vertex="1">
          <mxGeometry x="1135" y="740" width="70" height="70" as="geometry" />
        </mxCell>
        <mxCell id="WZYwIPlytzG-EjPIgdLX-32" value="水滴灌" style="ellipse;whiteSpace=wrap;html=1;aspect=fixed;" parent="1" vertex="1">
          <mxGeometry x="1235" y="750" width="75" height="75" as="geometry" />
        </mxCell>
        <mxCell id="WZYwIPlytzG-EjPIgdLX-33" value="室内光" style="ellipse;whiteSpace=wrap;html=1;aspect=fixed;" parent="1" vertex="1">
          <mxGeometry x="1355" y="880" width="70" height="70" as="geometry" />
        </mxCell>
        <mxCell id="WZYwIPlytzG-EjPIgdLX-34" value="肥滴灌" style="ellipse;whiteSpace=wrap;html=1;aspect=fixed;" parent="1" vertex="1">
          <mxGeometry x="1320" y="790" width="70" height="70" as="geometry" />
        </mxCell>
        <mxCell id="WZYwIPlytzG-EjPIgdLX-35" value="土壤氮元素" style="ellipse;whiteSpace=wrap;html=1;aspect=fixed;" parent="1" vertex="1">
          <mxGeometry x="515" y="750" width="60" height="60" as="geometry" />
        </mxCell>
        <mxCell id="WZYwIPlytzG-EjPIgdLX-36" value="土壤磷元素" style="ellipse;whiteSpace=wrap;html=1;aspect=fixed;" parent="1" vertex="1">
          <mxGeometry x="595" y="770" width="60" height="60" as="geometry" />
        </mxCell>
        <mxCell id="WZYwIPlytzG-EjPIgdLX-37" value="土壤钾元素" style="ellipse;whiteSpace=wrap;html=1;aspect=fixed;" parent="1" vertex="1">
          <mxGeometry x="450" y="700" width="60" height="60" as="geometry" />
        </mxCell>
        <mxCell id="WZYwIPlytzG-EjPIgdLX-38" value="土壤PH" style="ellipse;whiteSpace=wrap;html=1;aspect=fixed;" parent="1" vertex="1">
          <mxGeometry x="750" y="710" width="60" height="60" as="geometry" />
        </mxCell>
        <mxCell id="WZYwIPlytzG-EjPIgdLX-39" value="土壤湿度" style="ellipse;whiteSpace=wrap;html=1;aspect=fixed;" parent="1" vertex="1">
          <mxGeometry x="740" y="350" width="60" height="60" as="geometry" />
        </mxCell>
        <mxCell id="WZYwIPlytzG-EjPIgdLX-40" value="土壤温度" style="ellipse;whiteSpace=wrap;html=1;aspect=fixed;" parent="1" vertex="1">
          <mxGeometry x="686.25" y="750" width="62.5" height="62.5" as="geometry" />
        </mxCell>
        <mxCell id="WZYwIPlytzG-EjPIgdLX-41" value="内空气温度" style="ellipse;whiteSpace=wrap;html=1;aspect=fixed;" parent="1" vertex="1">
          <mxGeometry x="670" y="312.5" width="60" height="60" as="geometry" />
        </mxCell>
        <mxCell id="WZYwIPlytzG-EjPIgdLX-43" value="大棚编号" style="ellipse;whiteSpace=wrap;html=1;aspect=fixed;" parent="1" vertex="1">
          <mxGeometry x="370" y="460" width="70" height="70" as="geometry" />
        </mxCell>
        <mxCell id="WZYwIPlytzG-EjPIgdLX-44" value="大棚入网IP" style="ellipse;whiteSpace=wrap;html=1;aspect=fixed;" parent="1" vertex="1">
          <mxGeometry x="360" y="550" width="70" height="70" as="geometry" />
        </mxCell>
        <mxCell id="WZYwIPlytzG-EjPIgdLX-45" value="控制器编号" style="ellipse;whiteSpace=wrap;html=1;aspect=fixed;" parent="1" vertex="1">
          <mxGeometry x="915" y="872.5" width="70" height="70" as="geometry" />
        </mxCell>
        <mxCell id="WZYwIPlytzG-EjPIgdLX-56" value="" style="endArrow=none;html=1;entryX=1;entryY=0.5;entryDx=0;entryDy=0;exitX=0;exitY=0.5;exitDx=0;exitDy=0;" parent="1" source="WZYwIPlytzG-EjPIgdLX-2" target="WZYwIPlytzG-EjPIgdLX-43" edge="1">
          <mxGeometry width="50" height="50" relative="1" as="geometry">
            <mxPoint x="710" y="650" as="sourcePoint" />
            <mxPoint x="760" y="600" as="targetPoint" />
          </mxGeometry>
        </mxCell>
        <mxCell id="WZYwIPlytzG-EjPIgdLX-57" value="" style="endArrow=none;html=1;entryX=0;entryY=0.5;entryDx=0;entryDy=0;exitX=1.014;exitY=0.4;exitDx=0;exitDy=0;exitPerimeter=0;" parent="1" target="WZYwIPlytzG-EjPIgdLX-2" edge="1" source="WZYwIPlytzG-EjPIgdLX-44">
          <mxGeometry width="50" height="50" relative="1" as="geometry">
            <mxPoint x="453" y="585" as="sourcePoint" />
            <mxPoint x="510" y="560" as="targetPoint" />
          </mxGeometry>
        </mxCell>
        <mxCell id="WZYwIPlytzG-EjPIgdLX-58" value="" style="endArrow=none;html=1;entryX=-0.057;entryY=0.629;entryDx=0;entryDy=0;entryPerimeter=0;exitX=1;exitY=0.5;exitDx=0;exitDy=0;" parent="1" source="WZYwIPlytzG-EjPIgdLX-23" target="WZYwIPlytzG-EjPIgdLX-33" edge="1">
          <mxGeometry width="50" height="50" relative="1" as="geometry">
            <mxPoint x="1275" y="1070" as="sourcePoint" />
            <mxPoint x="1325" y="1020" as="targetPoint" />
          </mxGeometry>
        </mxCell>
        <mxCell id="WZYwIPlytzG-EjPIgdLX-59" value="" style="endArrow=none;html=1;entryX=0;entryY=0.5;entryDx=0;entryDy=0;exitX=1;exitY=0.607;exitDx=0;exitDy=0;exitPerimeter=0;" parent="1" source="WZYwIPlytzG-EjPIgdLX-45" target="WZYwIPlytzG-EjPIgdLX-23" edge="1">
          <mxGeometry width="50" height="50" relative="1" as="geometry">
            <mxPoint x="1025" y="950" as="sourcePoint" />
            <mxPoint x="1075" y="900" as="targetPoint" />
          </mxGeometry>
        </mxCell>
        <mxCell id="WZYwIPlytzG-EjPIgdLX-60" value="" style="endArrow=none;html=1;entryX=0;entryY=0.5;entryDx=0;entryDy=0;" parent="1" source="WZYwIPlytzG-EjPIgdLX-29" target="WZYwIPlytzG-EjPIgdLX-23" edge="1">
          <mxGeometry width="50" height="50" relative="1" as="geometry">
            <mxPoint x="1045" y="990" as="sourcePoint" />
            <mxPoint x="1095" y="940" as="targetPoint" />
          </mxGeometry>
        </mxCell>
        <mxCell id="WZYwIPlytzG-EjPIgdLX-61" value="" style="endArrow=none;html=1;entryX=0;entryY=1;entryDx=0;entryDy=0;exitX=1;exitY=0.5;exitDx=0;exitDy=0;" parent="1" source="WZYwIPlytzG-EjPIgdLX-23" target="WZYwIPlytzG-EjPIgdLX-34" edge="1">
          <mxGeometry width="50" height="50" relative="1" as="geometry">
            <mxPoint x="1255" y="910" as="sourcePoint" />
            <mxPoint x="1305" y="860" as="targetPoint" />
          </mxGeometry>
        </mxCell>
        <mxCell id="WZYwIPlytzG-EjPIgdLX-62" value="" style="endArrow=none;html=1;entryX=0.267;entryY=0.933;entryDx=0;entryDy=0;entryPerimeter=0;exitX=0.5;exitY=0;exitDx=0;exitDy=0;" parent="1" source="WZYwIPlytzG-EjPIgdLX-23" target="WZYwIPlytzG-EjPIgdLX-32" edge="1">
          <mxGeometry width="50" height="50" relative="1" as="geometry">
            <mxPoint x="1245" y="1020" as="sourcePoint" />
            <mxPoint x="1295" y="970" as="targetPoint" />
          </mxGeometry>
        </mxCell>
        <mxCell id="WZYwIPlytzG-EjPIgdLX-63" value="" style="endArrow=none;html=1;entryX=1;entryY=1;entryDx=0;entryDy=0;exitX=0.5;exitY=0;exitDx=0;exitDy=0;" parent="1" source="WZYwIPlytzG-EjPIgdLX-23" target="WZYwIPlytzG-EjPIgdLX-30" edge="1">
          <mxGeometry width="50" height="50" relative="1" as="geometry">
            <mxPoint x="1175" y="900" as="sourcePoint" />
            <mxPoint x="1145" y="830" as="targetPoint" />
          </mxGeometry>
        </mxCell>
        <mxCell id="WZYwIPlytzG-EjPIgdLX-64" value="" style="endArrow=none;html=1;entryX=0.5;entryY=1;entryDx=0;entryDy=0;exitX=0.5;exitY=0;exitDx=0;exitDy=0;" parent="1" source="WZYwIPlytzG-EjPIgdLX-23" target="WZYwIPlytzG-EjPIgdLX-31" edge="1">
          <mxGeometry width="50" height="50" relative="1" as="geometry">
            <mxPoint x="1155" y="880" as="sourcePoint" />
            <mxPoint x="1205" y="830" as="targetPoint" />
          </mxGeometry>
        </mxCell>
        <mxCell id="WZYwIPlytzG-EjPIgdLX-76" value="用户" style="rounded=0;whiteSpace=wrap;html=1;" parent="1" vertex="1">
          <mxGeometry x="970" y="535" width="90" height="45" as="geometry" />
        </mxCell>
        <mxCell id="WZYwIPlytzG-EjPIgdLX-77" value="拥有" style="rhombus;whiteSpace=wrap;html=1;" parent="1" vertex="1">
          <mxGeometry x="780" y="517.5" width="80" height="80" as="geometry" />
        </mxCell>
        <mxCell id="WZYwIPlytzG-EjPIgdLX-78" value="" style="endArrow=none;html=1;entryX=0;entryY=0.5;entryDx=0;entryDy=0;exitX=1;exitY=0.5;exitDx=0;exitDy=0;" parent="1" source="WZYwIPlytzG-EjPIgdLX-2" target="WZYwIPlytzG-EjPIgdLX-77" edge="1">
          <mxGeometry width="50" height="50" relative="1" as="geometry">
            <mxPoint x="680" y="580" as="sourcePoint" />
            <mxPoint x="730" y="530" as="targetPoint" />
          </mxGeometry>
        </mxCell>
        <mxCell id="WZYwIPlytzG-EjPIgdLX-79" value="" style="endArrow=none;html=1;entryX=0;entryY=0.5;entryDx=0;entryDy=0;exitX=1;exitY=0.5;exitDx=0;exitDy=0;" parent="1" source="WZYwIPlytzG-EjPIgdLX-77" target="WZYwIPlytzG-EjPIgdLX-76" edge="1">
          <mxGeometry width="50" height="50" relative="1" as="geometry">
            <mxPoint x="900" y="590" as="sourcePoint" />
            <mxPoint x="950" y="540" as="targetPoint" />
          </mxGeometry>
        </mxCell>
        <mxCell id="WZYwIPlytzG-EjPIgdLX-80" value="用户姓名" style="ellipse;whiteSpace=wrap;html=1;aspect=fixed;" parent="1" vertex="1">
          <mxGeometry x="1135" y="580" width="70" height="70" as="geometry" />
        </mxCell>
        <mxCell id="WZYwIPlytzG-EjPIgdLX-81" value="电话" style="ellipse;whiteSpace=wrap;html=1;aspect=fixed;" parent="1" vertex="1">
          <mxGeometry x="1135" y="465" width="70" height="70" as="geometry" />
        </mxCell>
        <mxCell id="WZYwIPlytzG-EjPIgdLX-83" value="" style="endArrow=none;html=1;entryX=0;entryY=1;entryDx=0;entryDy=0;exitX=1;exitY=0.5;exitDx=0;exitDy=0;" parent="1" source="WZYwIPlytzG-EjPIgdLX-76" target="WZYwIPlytzG-EjPIgdLX-81" edge="1">
          <mxGeometry width="50" height="50" relative="1" as="geometry">
            <mxPoint x="1030" y="490" as="sourcePoint" />
            <mxPoint x="1080" y="440" as="targetPoint" />
          </mxGeometry>
        </mxCell>
        <mxCell id="WZYwIPlytzG-EjPIgdLX-84" value="" style="endArrow=none;html=1;entryX=0;entryY=0.5;entryDx=0;entryDy=0;exitX=1;exitY=0.5;exitDx=0;exitDy=0;" parent="1" source="WZYwIPlytzG-EjPIgdLX-76" target="WZYwIPlytzG-EjPIgdLX-80" edge="1">
          <mxGeometry width="50" height="50" relative="1" as="geometry">
            <mxPoint x="1050" y="660" as="sourcePoint" />
            <mxPoint x="1100" y="610" as="targetPoint" />
          </mxGeometry>
        </mxCell>
        <mxCell id="WZYwIPlytzG-EjPIgdLX-86" value="水量检测" style="ellipse;whiteSpace=wrap;html=1;aspect=fixed;" parent="1" vertex="1">
          <mxGeometry x="390" y="640" width="60" height="60" as="geometry" />
        </mxCell>
        <mxCell id="WZYwIPlytzG-EjPIgdLX-88" value="" style="endArrow=none;html=1;exitX=1;exitY=0.5;exitDx=0;exitDy=0;entryX=0;entryY=0.75;entryDx=0;entryDy=0;" parent="1" source="WZYwIPlytzG-EjPIgdLX-86" target="WZYwIPlytzG-EjPIgdLX-2" edge="1">
          <mxGeometry width="50" height="50" relative="1" as="geometry">
            <mxPoint x="640" y="650" as="sourcePoint" />
            <mxPoint x="690" y="600" as="targetPoint" />
          </mxGeometry>
        </mxCell>
        <mxCell id="WZYwIPlytzG-EjPIgdLX-89" value="" style="endArrow=none;html=1;exitX=0.989;exitY=0.184;exitDx=0;exitDy=0;exitPerimeter=0;entryX=0.25;entryY=1;entryDx=0;entryDy=0;" parent="1" source="WZYwIPlytzG-EjPIgdLX-37" target="WZYwIPlytzG-EjPIgdLX-2" edge="1">
          <mxGeometry width="50" height="50" relative="1" as="geometry">
            <mxPoint x="550" y="710" as="sourcePoint" />
            <mxPoint x="600" y="660" as="targetPoint" />
          </mxGeometry>
        </mxCell>
        <mxCell id="WZYwIPlytzG-EjPIgdLX-90" value="" style="endArrow=none;html=1;exitX=0.583;exitY=0.167;exitDx=0;exitDy=0;exitPerimeter=0;entryX=0.25;entryY=1;entryDx=0;entryDy=0;" parent="1" source="WZYwIPlytzG-EjPIgdLX-35" target="WZYwIPlytzG-EjPIgdLX-2" edge="1">
          <mxGeometry width="50" height="50" relative="1" as="geometry">
            <mxPoint x="580" y="720" as="sourcePoint" />
            <mxPoint x="630" y="670" as="targetPoint" />
          </mxGeometry>
        </mxCell>
        <mxCell id="WZYwIPlytzG-EjPIgdLX-91" value="" style="endArrow=none;html=1;exitX=0.5;exitY=0;exitDx=0;exitDy=0;entryX=0.5;entryY=1;entryDx=0;entryDy=0;" parent="1" source="WZYwIPlytzG-EjPIgdLX-36" target="WZYwIPlytzG-EjPIgdLX-2" edge="1">
          <mxGeometry width="50" height="50" relative="1" as="geometry">
            <mxPoint x="610" y="690" as="sourcePoint" />
            <mxPoint x="660" y="640" as="targetPoint" />
          </mxGeometry>
        </mxCell>
        <mxCell id="WZYwIPlytzG-EjPIgdLX-92" value="" style="endArrow=none;html=1;exitX=0;exitY=0;exitDx=0;exitDy=0;" parent="1" source="WZYwIPlytzG-EjPIgdLX-40" target="WZYwIPlytzG-EjPIgdLX-2" edge="1">
          <mxGeometry width="50" height="50" relative="1" as="geometry">
            <mxPoint x="670" y="710" as="sourcePoint" />
            <mxPoint x="620" y="590" as="targetPoint" />
          </mxGeometry>
        </mxCell>
        <mxCell id="WZYwIPlytzG-EjPIgdLX-93" value="" style="endArrow=none;html=1;exitX=0;exitY=0;exitDx=0;exitDy=0;entryX=0.75;entryY=1;entryDx=0;entryDy=0;" parent="1" source="WZYwIPlytzG-EjPIgdLX-38" target="WZYwIPlytzG-EjPIgdLX-2" edge="1">
          <mxGeometry width="50" height="50" relative="1" as="geometry">
            <mxPoint x="720" y="710" as="sourcePoint" />
            <mxPoint x="630" y="580" as="targetPoint" />
          </mxGeometry>
        </mxCell>
        <mxCell id="WZYwIPlytzG-EjPIgdLX-95" value="" style="endArrow=none;html=1;exitX=1;exitY=1;exitDx=0;exitDy=0;entryX=0.15;entryY=-0.026;entryDx=0;entryDy=0;entryPerimeter=0;" parent="1" source="WZYwIPlytzG-EjPIgdLX-17" target="WZYwIPlytzG-EjPIgdLX-2" edge="1">
          <mxGeometry width="50" height="50" relative="1" as="geometry">
            <mxPoint x="540" y="470" as="sourcePoint" />
            <mxPoint x="590" y="420" as="targetPoint" />
          </mxGeometry>
        </mxCell>
        <mxCell id="WZYwIPlytzG-EjPIgdLX-96" value="" style="endArrow=none;html=1;exitX=0.5;exitY=1;exitDx=0;exitDy=0;entryX=0.25;entryY=0;entryDx=0;entryDy=0;" parent="1" source="WZYwIPlytzG-EjPIgdLX-16" target="WZYwIPlytzG-EjPIgdLX-2" edge="1">
          <mxGeometry width="50" height="50" relative="1" as="geometry">
            <mxPoint x="590" y="470" as="sourcePoint" />
            <mxPoint x="640" y="420" as="targetPoint" />
          </mxGeometry>
        </mxCell>
        <mxCell id="WZYwIPlytzG-EjPIgdLX-97" value="" style="endArrow=none;html=1;exitX=0.5;exitY=0;exitDx=0;exitDy=0;entryX=0.5;entryY=1;entryDx=0;entryDy=0;" parent="1" source="WZYwIPlytzG-EjPIgdLX-2" target="WZYwIPlytzG-EjPIgdLX-10" edge="1">
          <mxGeometry width="50" height="50" relative="1" as="geometry">
            <mxPoint x="620" y="480" as="sourcePoint" />
            <mxPoint x="670" y="430" as="targetPoint" />
          </mxGeometry>
        </mxCell>
        <mxCell id="WZYwIPlytzG-EjPIgdLX-98" value="" style="endArrow=none;html=1;exitX=0.75;exitY=0;exitDx=0;exitDy=0;" parent="1" source="WZYwIPlytzG-EjPIgdLX-2" target="WZYwIPlytzG-EjPIgdLX-41" edge="1">
          <mxGeometry width="50" height="50" relative="1" as="geometry">
            <mxPoint x="650" y="490" as="sourcePoint" />
            <mxPoint x="706" y="410" as="targetPoint" />
          </mxGeometry>
        </mxCell>
        <mxCell id="WZYwIPlytzG-EjPIgdLX-99" value="" style="endArrow=none;html=1;exitX=0.75;exitY=0;exitDx=0;exitDy=0;entryX=0;entryY=1;entryDx=0;entryDy=0;" parent="1" source="WZYwIPlytzG-EjPIgdLX-2" target="WZYwIPlytzG-EjPIgdLX-39" edge="1">
          <mxGeometry width="50" height="50" relative="1" as="geometry">
            <mxPoint x="690" y="510" as="sourcePoint" />
            <mxPoint x="740" y="460" as="targetPoint" />
          </mxGeometry>
        </mxCell>
        <mxCell id="mZQEBK8sxV1rw_fEE1Ut-1" value="外空气温度" style="ellipse;whiteSpace=wrap;html=1;aspect=fixed;" vertex="1" parent="1">
          <mxGeometry x="790" y="410" width="60" height="60" as="geometry" />
        </mxCell>
        <mxCell id="mZQEBK8sxV1rw_fEE1Ut-2" value="" style="endArrow=none;html=1;entryX=0;entryY=1;entryDx=0;entryDy=0;exitX=1;exitY=0;exitDx=0;exitDy=0;" edge="1" parent="1" source="WZYwIPlytzG-EjPIgdLX-2" target="mZQEBK8sxV1rw_fEE1Ut-1">
          <mxGeometry width="50" height="50" relative="1" as="geometry">
            <mxPoint x="720" y="530" as="sourcePoint" />
            <mxPoint x="770" y="480" as="targetPoint" />
          </mxGeometry>
        </mxCell>
      </root>
    </mxGraphModel>
  </diagram>
</mxfile>
